<svg width="69" height="70" viewBox="0 0 69 70" fill="none" xmlns="http://www.w3.org/2000/svg">
<path d="M41.3438 37.4585C40.5499 37.0607 38.7815 36.5249 36.6765 36.3855C34.5707 36.2465 31.8696 36.3855 31.8696 36.3855V45.5025C31.8696 45.5025 34.6901 45.5627 36.5778 45.4236C38.4638 45.2845 40.4108 44.808 41.3842 44.271C42.3569 43.7347 43.5292 42.9005 43.5292 40.8153C43.5292 38.7292 42.1385 37.8557 41.3438 37.4585Z" fill="white"/>
<path d="M35.4053 32.1543C36.9553 32.0945 38.6038 31.7374 39.7946 31.0817C40.9866 30.4263 41.6617 29.394 41.6229 27.8443C41.5822 26.2948 40.5502 24.9841 38.8024 24.4471C37.054 23.9108 35.883 23.871 34.5513 23.8513C33.2205 23.8318 31.8696 23.9509 31.8696 23.9509V32.1543C31.8696 32.1543 33.8561 32.2142 35.4053 32.1543Z" fill="white"/>
<path d="M34.5716 0.333496C15.5492 0.333496 0.128418 15.754 0.128418 34.7767C0.128418 53.7991 15.5492 69.2199 34.5716 69.2199C53.594 69.2199 69.0142 53.7991 69.0142 34.7767C69.0142 15.754 53.594 0.333496 34.5716 0.333496ZM48.5957 47.9462C46.0325 49.7341 43.2917 50.0524 42.0799 50.2106C41.4819 50.2892 40.4576 50.3722 39.3591 50.4365V57.342H35.108V50.5483C34.3138 50.5483 33.1761 50.5483 31.8705 50.5483V57.342H27.6197V50.5483C23.4129 50.5483 19.2574 50.5483 19.2574 50.5483L20.1311 45.4426C20.1311 45.4426 21.8194 45.4426 22.6734 45.4426C23.528 45.4426 23.8848 45.3633 24.2423 45.0259C24.5997 44.6879 24.6793 44.1719 24.6793 43.754C24.6793 43.337 24.6793 27.2675 24.6793 26.1651C24.6793 25.0633 24.5897 24.765 24.0831 24.1992C23.5766 23.6322 22.3852 23.5578 21.7143 23.5578C21.044 23.5578 19.2571 23.5578 19.2571 23.5578V19.1442C19.2571 19.1442 23.2799 19.1442 27.6194 19.1442V12.3311H31.8699V19.1442C33.051 19.1442 34.1589 19.1442 35.1073 19.1442V12.3311H39.3585V19.2259C42.5276 19.4224 44.8867 20.0261 46.9458 21.5477C49.608 23.5141 49.4683 26.9304 49.4087 27.7449C49.3495 28.5594 48.9921 30.1289 48.2763 31.1411C47.562 32.1546 45.8139 33.1677 45.8139 33.1677C45.8139 33.1677 47.8793 33.6044 49.3301 34.6971C50.779 35.7898 51.8529 37.7162 51.7919 40.5369C51.7335 43.3577 51.1577 46.1587 48.5957 47.9462Z" fill="white"/>
</svg>
