<svg width="70" height="70" viewBox="0 0 70 70" fill="none" xmlns="http://www.w3.org/2000/svg">
<path d="M21.6042 3.63745L15.6266 10.4124L24.1947 49.571L21.6731 49.8075L13.3582 11.805L5.86865 19.4168L15.7813 58.4221L21.3233 52.0649L23.1105 53.8405L17.2302 60.586L44.2742 67.0122L51.4995 60.351L25.6092 53.6162L26.2931 51.1963L53.1936 58.1942L67.1657 31.9235L57.9084 14.7083L21.6045 3.63745H21.6042ZM32.6226 10.6177C43.4671 10.7218 55.338 21.2938 53.5291 32.8099C49.7428 23.6632 41.0562 14.9246 31.2535 17.2486C22.7773 19.2582 30.5559 28.0636 40.1072 30.3897C50.6556 32.9584 62.8068 41.5909 54.7664 50.0942C47.3456 57.9418 33.3586 50.3673 34.4927 40.9836C36.8945 45.3739 45.492 52.497 50.728 46.8264C58.0671 38.8787 40.2717 34.2436 34.2808 31.6419C28.1139 28.9647 15.5962 20.0729 23.374 13.738C26.0791 11.5347 29.3026 10.5859 32.6223 10.6177H32.6226ZM35.5675 18.9101C36.5266 18.9159 37.6086 19.0236 38.7848 19.2401C35.3749 20.7706 34.7097 23.431 35.352 26.6298C28.7978 21.8163 30.3888 18.8785 35.5676 18.91L35.5675 18.9101ZM54.4928 21.7874C59.6996 24.1091 61.6874 30.781 55.6838 34.7056C56.5823 30.3501 56.5331 26.0302 54.4928 21.7871V21.7874ZM34.1412 34.046C34.8174 34.0464 35.5692 34.246 36.2781 34.6553C37.8986 35.5909 38.6824 37.2673 38.0287 38.3997C37.375 39.5319 35.5312 39.6914 33.9108 38.7559C32.2903 37.8203 31.5068 36.1439 32.1605 35.0115C32.5283 34.3746 33.2721 34.0457 34.1412 34.046Z" fill="white"/>
</svg>
